<svg version="1.1" id="Layer_1" xmlns="http://www.w3.org/2000/svg" xmlns:xlink="http://www.w3.org/1999/xlink" x="0px" y="0px"
	 width="100%" viewBox="0 0 1024 1024" enable-background="new 0 0 1024 1024" xml:space="preserve">
<path fill="#000000" opacity="1.000000" stroke="none" 
	d="
M782.000000,108.833893 
	C799.302124,108.903229 816.113770,108.147629 832.633240,112.684883 
	C873.613098,123.940399 904.711609,161.925034 906.300171,204.271347 
	C908.043030,250.732697 906.872131,297.231323 906.909668,343.712280 
	C907.032593,495.853302 907.002136,647.994507 906.858093,800.135498 
	C906.809204,851.781067 869.874146,894.275330 818.797607,902.000183 
	C813.875427,902.744629 808.846558,903.101624 803.867126,903.102966 
	C609.899719,903.155823 415.932281,903.177368 221.964844,903.125793 
	C165.765823,903.110840 119.699097,857.094543 119.686302,801.039307 
	C119.641457,604.572144 119.621490,408.104980 119.662628,211.637817 
	C119.673203,161.140106 154.992386,119.141121 204.703796,110.333160 
	C211.082962,109.202896 217.570648,108.767693 224.093246,108.769440 
	C409.895477,108.819183 595.697754,108.823311 782.000000,108.833893 
M900.820068,197.522400 
	C895.047913,150.401962 853.501892,114.256813 804.717712,114.242760 
	C610.240784,114.186714 415.763885,114.217590 221.286957,114.224533 
	C198.426147,114.225342 177.961288,121.360344 160.450974,135.970200 
	C137.611633,155.026367 125.199577,179.446167 124.923080,209.484390 
	C124.636345,240.634933 124.464806,271.787720 124.472366,302.939453 
	C124.478477,328.092896 124.631409,353.244812 124.587906,378.399963 
	C124.437508,465.383728 124.096680,552.368347 124.757103,639.354431 
	C125.129005,688.338562 125.487022,737.334534 124.439766,786.320862 
	C124.236565,795.825562 124.246193,805.362061 125.486191,814.766052 
	C131.587494,861.037659 173.609299,897.732178 220.729492,897.749695 
	C415.372955,897.822144 610.016479,897.769043 804.659973,897.771484 
	C810.674683,897.771545 816.662292,897.322510 822.548767,896.179138 
	C865.708313,887.796204 901.910583,849.768616 901.827759,798.765076 
	C901.509583,602.788818 901.711121,406.811798 901.696289,210.835052 
	C901.695984,206.682083 901.994995,202.494812 900.820068,197.522400 
z"/>
<path fill="#000000" opacity="1.000000" stroke="none" 
	d="
M604.695923,460.297485 
	C624.882202,479.958008 644.749390,499.441620 664.825378,518.707642 
	C668.085266,521.835938 668.464661,524.082825 666.047485,527.989075 
	C638.524841,572.468201 611.185608,617.060669 583.795593,661.621887 
	C583.446655,662.189575 583.019409,662.715271 582.722168,663.307556 
	C580.722168,667.292358 578.621826,667.773987 575.268799,664.323730 
	C567.723022,656.559204 559.850159,649.112854 552.118896,641.528381 
	C487.295319,577.935913 422.450165,514.365479 357.661194,450.737762 
	C323.899048,417.580780 290.228271,384.330719 256.551483,351.087006 
	C254.497971,349.059875 252.062302,347.257690 250.528839,343.717194 
	C254.559677,343.474579 257.973145,343.091461 261.386810,343.089844 
	C334.040924,343.054932 406.695038,343.073425 479.349121,343.028687 
	C482.671814,343.026642 485.340454,343.738770 487.859711,346.205597 
	C526.668884,384.207306 565.568054,422.117096 604.695923,460.297485 
z"/>
<path fill="#000000" opacity="1.000000" stroke="none" 
	d="
M697.252747,391.848938 
	C698.922729,395.167877 701.564636,396.158752 704.688354,396.699677 
	C721.950745,399.688904 738.878479,403.922974 754.959106,411.038544 
	C769.717224,417.568848 780.367249,427.905609 784.669189,443.910156 
	C785.349731,446.441772 786.056885,449.040466 784.518555,451.995605 
	C780.162781,451.103516 775.846619,449.768585 771.448792,449.394867 
	C749.335571,447.515717 728.425171,451.998077 708.629089,461.911163 
	C703.388794,464.535278 699.612610,468.566956 696.826660,473.708130 
	C692.623840,481.463989 688.251404,489.128387 683.908875,496.807892 
	C681.243347,501.521576 680.841309,501.566284 676.716553,497.625305 
	C660.824402,482.441284 644.940063,467.249054 629.070618,452.041321 
	C611.156067,434.873779 593.309326,417.634888 575.304138,400.563019 
	C572.612610,398.011017 571.992126,396.404236 574.690918,393.274536 
	C590.354736,375.110138 609.714966,363.513702 633.908691,363.436981 
	C658.708435,363.358337 681.365723,370.158447 697.252747,391.848938 
M669.935974,402.532501 
	C662.297424,396.434631 653.438782,397.704742 644.731750,398.542297 
	C642.435913,398.763123 642.026672,400.544891 643.136841,402.661285 
	C645.858459,407.849548 656.149963,412.867340 661.906006,411.716034 
	C667.239990,410.649139 670.157532,407.675110 669.935974,402.532501 
z"/>
<path fill="#000000" opacity="1.000000" stroke="none" 
	d="
M433.210693,565.798828 
	C470.020538,602.690308 506.581757,639.330994 543.927307,676.757690 
	C477.008698,676.757690 411.022247,676.757690 345.032776,676.757690 
	C344.485260,674.402832 346.185394,673.219421 347.202362,671.810303 
	C372.633392,636.571228 398.096680,601.355347 423.553467,566.134827 
	C427.731140,560.354858 427.729462,560.353638 433.210693,565.798828 
z"/>
</svg>